<?xml version="1.0" encoding="UTF-8" standalone="no"?>
<!-- Created with Inkscape (http://www.inkscape.org/) -->

<svg
   xmlns:dc="http://purl.org/dc/elements/1.1/"
   xmlns:cc="http://creativecommons.org/ns#"
   xmlns:rdf="http://www.w3.org/1999/02/22-rdf-syntax-ns#"
   xmlns:svg="http://www.w3.org/2000/svg"
   xmlns="http://www.w3.org/2000/svg"
   xmlns:sodipodi="http://sodipodi.sourceforge.net/DTD/sodipodi-0.dtd"
   xmlns:inkscape="http://www.inkscape.org/namespaces/inkscape"
   id="svg2985"
   version="1.1"
   inkscape:version="0.48.2 r9819"
   width="25"
   height="25"
   sodipodi:docname="pencil.svg">
  <metadata
     id="metadata2991">
    <rdf:RDF>
      <cc:Work
         rdf:about="">
        <dc:format>image/svg+xml</dc:format>
        <dc:type
           rdf:resource="http://purl.org/dc/dcmitype/StillImage" />
        <dc:title></dc:title>
      </cc:Work>
    </rdf:RDF>
  </metadata>
  <defs
     id="defs2989" />
  <sodipodi:namedview
     pagecolor="#ffffff"
     bordercolor="#666666"
     borderopacity="1"
     objecttolerance="10"
     gridtolerance="10"
     guidetolerance="10"
     inkscape:pageopacity="0"
     inkscape:pageshadow="2"
     inkscape:window-width="1280"
     inkscape:window-height="972"
     id="namedview2987"
     showgrid="false"
     inkscape:zoom="5.8828125"
     inkscape:cx="17.084837"
     inkscape:cy="481.11795"
     inkscape:window-x="-8"
     inkscape:window-y="-8"
     inkscape:window-maximized="1"
     inkscape:current-layer="svg2985"
     showborder="false" />
  <path
     style="fill:#99bd1b;fill-opacity:1;stroke:none"
     d="M 0,0.05518 0,25 25.084813,25 25.084679,-0.00412 z m 20.550632,0.94025 c 0.771916,0.0109 1.509405,0.24935 2.147377,0.80734 2.101251,1.83783 1.341788,4.24577 -0.539326,6.23616 L 11.46812,18.93644 1.2606329,23.52801 5.9590546,12.80991 16.686015,2.40081 C 17.879317,1.5916 19.264104,0.97728 20.550632,0.99543 z M 16.8316,2.83272 15.101125,4.47731 20.302476,9.63037 21.814574,7.94923 z m -1.981941,1.95357 -1.042255,0.9037 5.217895,5.27599 0.936375,-0.94024 z m -1.710623,1.68114 5.059077,5.14974 c 0,0 -1.131751,-1.98044 -1.978631,-2.85727 C 15.372601,7.88306 13.139036,6.46743 13.139036,6.46743 z m -0.466531,0.50501 -0.936376,1.04656 4.824154,4.79091 1.062106,-0.81399 z m -5.5620058,8.54856 -1.5484944,0.0731 -2.517957,5.23944 0.827187,0.97679 5.4892125,-2.78418 0.019853,-1.4818 -2.2334056,-0.21595 z"
     id="path3848"
     inkscape:connector-curvature="0"
     sodipodi:nodetypes="cccccsscccccsccccccccccccscccccccccccccc" />
</svg>
