<?xml version="1.0" encoding="UTF-8" standalone="no"?>
<!-- Created with Inkscape (http://www.inkscape.org/) -->

<svg
   xmlns:dc="http://purl.org/dc/elements/1.1/"
   xmlns:cc="http://creativecommons.org/ns#"
   xmlns:rdf="http://www.w3.org/1999/02/22-rdf-syntax-ns#"
   xmlns:svg="http://www.w3.org/2000/svg"
   xmlns="http://www.w3.org/2000/svg"
   xmlns:sodipodi="http://sodipodi.sourceforge.net/DTD/sodipodi-0.dtd"
   xmlns:inkscape="http://www.inkscape.org/namespaces/inkscape"
   id="svg3867"
   version="1.1"
   inkscape:version="0.48.2 r9819"
   width="25"
   height="25"
   sodipodi:docname="save.svg">
  <metadata
     id="metadata3873">
    <rdf:RDF>
      <cc:Work
         rdf:about="">
        <dc:format>image/svg+xml</dc:format>
        <dc:type
           rdf:resource="http://purl.org/dc/dcmitype/StillImage" />
        <dc:title></dc:title>
      </cc:Work>
    </rdf:RDF>
  </metadata>
  <defs
     id="defs3871" />
  <sodipodi:namedview
     pagecolor="#ffffff"
     bordercolor="#666666"
     borderopacity="1"
     objecttolerance="10"
     gridtolerance="10"
     guidetolerance="10"
     inkscape:pageopacity="0"
     inkscape:pageshadow="2"
     inkscape:window-width="1280"
     inkscape:window-height="972"
     id="namedview3869"
     showgrid="false"
     inkscape:snap-global="true"
     inkscape:zoom="25.634042"
     inkscape:cx="8.93843"
     inkscape:cy="8.13021"
     inkscape:window-x="-8"
     inkscape:window-y="-8"
     inkscape:window-maximized="1"
     inkscape:current-layer="svg3867" />
  <path
     style="fill:#99bd1b;fill-opacity:1;stroke:none"
     d="m 0,0 0,25 25,0 0,-25 z m 3.75,3.5625 2.4375,0 0,5.9375 12.8125,0 0,-5.9375 1,0 2,1.71875 0,16.3125 c 0,0 -0.09711,0.09184 -0.15625,0.15625 -0.05914,0.0644 -0.21875,0.125 -0.21875,0.125 l -17.78125,0 c 0,0 -0.2045391,-0.03615 -0.28125,-0.09375 C 3.485812,21.72365 3.40625,21.5625 3.40625,21.5625 l 0,-17.5 c 0,0 0.034464,-0.22446 0.09375,-0.3125 C 3.559287,3.662 3.75,3.5625 3.75,3.5625 z m 4,0 9.78125,0 0,4.4375 L 7.75,8 z M 14.0625,4 l 0,3.125 1.96875,0 0,-3.125 z m -7.59375,7.65625 c 0,0 -0.2579125,0.07408 -0.375,0.15625 -0.1170874,0.0821 -0.3125,0.34375 -0.3125,0.34375 l 0,7.1875 c 0,0 0.1345182,0.20501 0.25,0.28125 0.1154818,0.0762 0.4375,0.15625 0.4375,0.15625 l 12.3125,0 c 0,0 0.422564,-0.04969 0.5625,-0.125 0.139939,-0.0753 0.25,-0.28125 0.25,-0.28125 l 0,-7.21875 c 0,0 -0.112771,-0.25534 -0.25,-0.34375 -0.137226,-0.0884 -0.5625,-0.15625 -0.5625,-0.15625 z M 8,13.25 l 9.3125,0 c 0,0 0.328838,0.48641 0.34375,0.65625 0.01491,0.16984 -0.25,0.59375 -0.25,0.59375 L 8,14.5 C 8,14.5 7.6593363,14.132889 7.65625,13.90625 7.65316,13.67961 7.839507,13.393361 8,13.25 z m 0,3.474643 9.3125,0 c 0,0 0.328838,0.48641 0.34375,0.65625 0.01491,0.16984 -0.21875,0.59375 -0.21875,0.59375 l -9.4375,0 c 0,0 -0.3094137,-0.367111 -0.3125,-0.59375 C 7.68441,17.154253 7.839507,16.868004 8,16.724643 z"
     id="path4437"
     inkscape:connector-curvature="0"
     sodipodi:nodetypes="cccccccccccccccccccccccccccccccccccccccccccccccccccccccccc" />
</svg>
