<?xml version="1.0" standalone="no"?>
<!DOCTYPE svg PUBLIC "-//W3C//DTD SVG 1.1//EN" "http://www.w3.org/Graphics/SVG/1.1/DTD/svg11.dtd">
<!--Generator: Xara Designer (www.xara.com), SVG filter version: 3.0.0.4-->
<svg stroke-width="0.501" stroke-linejoin="bevel" fill-rule="evenodd" xmlns:xlink="http://www.w3.org/1999/xlink" xmlns="http://www.w3.org/2000/svg" version="1.1" overflow="visible" width="24pt" height="24pt" viewBox="0 0 24 24">
 <defs>
  <marker id="DefaultArrow2" markerUnits="strokeWidth" viewBox="0 0 1 1" markerWidth="1" markerHeight="1" overflow="visible" orient="auto">
   <!-- REF_ARROW_STRAIGHT (-2) -->
   <g transform="scale(0.0092592592)">
    <!-- 1/108 -->
    <path d="M -9 54 L -9 -54 L 117 0 z"/>
   </g>
  </marker>
  <marker id="DefaultArrow3" markerUnits="strokeWidth" viewBox="0 0 1 1" markerWidth="1" markerHeight="1" overflow="visible" orient="auto">
   <!-- REF_ARROW_ANGLED -->
   <g transform="scale(0.0092592592)">
    <path d="M -27 54 L -9 0 L -27 -54 L 135 0 z"/>
   </g>
  </marker>
  <marker id="DefaultArrow4" markerUnits="strokeWidth" viewBox="0 0 1 1" markerWidth="1" markerHeight="1" overflow="visible" orient="auto">
   <!-- REF_ARROW_ROUNDED -->
   <g transform="scale(0.0092592592)">
    <path d="M -9,0 L -9,-45 C -9,-51.708 2.808,-56.580 9,-54 L 117,-9 C 120.916,-7.369 126.000,-4.242 126,0 C 126,4.242 120.916,7.369 117,9 L 9,54 C 2.808,56.580 -9,51.708 -9,45 z"/>
   </g>
  </marker>
  <marker id="DefaultArrow5" markerUnits="strokeWidth" viewBox="0 0 1 1" markerWidth="1" markerHeight="1" overflow="visible" orient="auto">
   <!-- REF_ARROW_SPOT -->
   <g transform="scale(0.0092592592)">
    <path d="M -54, 0 C -54,29.807 -29.807,54 0,54 C 29.807,54 54,29.807 54,0 C 54,-29.807 29.807,-54 0,-54 C -29.807,-54 -54,-29.807 -54,0 z"/>
   </g>
  </marker>
  <marker id="DefaultArrow6" markerUnits="strokeWidth" viewBox="0 0 1 1" markerWidth="1" markerHeight="1" overflow="visible" orient="auto">
   <!-- REF_ARROW_DIAMOND -->
   <g transform="scale(0.0092592592)">
    <path d="M -63,0 L 0,63 L 63,0 L 0,-63 z"/>
   </g>
  </marker>
  <marker id="DefaultArrow7" markerUnits="strokeWidth" viewBox="0 0 1 1" markerWidth="1" markerHeight="1" overflow="visible" orient="auto">
   <!-- REF_ARROW_FEATHER -->
   <g transform="scale(0.0092592592)">
    <path d="M 18,-54 L 108,-54 L 63,0 L 108,54 L 18, 54 L -36,0 z"/>
   </g>
  </marker>
  <marker id="DefaultArrow8" markerUnits="strokeWidth" viewBox="0 0 1 1" markerWidth="1" markerHeight="1" overflow="visible" orient="auto">
   <!-- REF_ARROW_FEATHER2 -->
   <g transform="scale(0.0092592592)">
    <path d="M -36,0 L 18,-54 L 54,-54 L 18,-18 L 27,-18 L 63,-54 L 99,-54 L 63,-18 L 72,-18 L 108,-54 L 144,-54 L 90,0 L 144,54 L 108,54 L 72,18 L 63,18 L 99,54 L 63,54 L 27,18 L 18,18 L 54,54 L 18,54 z"/>
   </g>
  </marker>
  <marker id="DefaultArrow9" markerUnits="strokeWidth" viewBox="0 0 1 1" markerWidth="1" markerHeight="1" overflow="visible" orient="auto">
   <!-- REF_ARROW_HOLLOWDIAMOND -->
   <g transform="scale(0.0092592592)">
    <path d="M 0,45 L -45,0 L 0, -45 L 45, 0 z M 0, 63 L-63, 0 L 0, -63 L 63, 0 z"/>
   </g>
  </marker>
  <filter id="StainedFilter">
   <feBlend mode="multiply" in2="BackgroundImage" in="SourceGraphic" result="blend"/>
   <feComposite in="blend" in2="SourceAlpha" operator="in" result="comp"/>
  </filter>
  <filter id="BleachFilter">
   <feBlend mode="screen" in2="BackgroundImage" in="SourceGraphic" result="blend"/>
   <feComposite in="blend" in2="SourceAlpha" operator="in" result="comp"/>
  </filter>
  <filter id="InvertTransparencyBitmapFilter">
   <feComponentTransfer>
    <feFuncR type="gamma" amplitude="1.055" exponent=".416666666" offset="-0.055"/>
    <feFuncG type="gamma" amplitude="1.055" exponent=".416666666" offset="-0.055"/>
    <feFuncB type="gamma" amplitude="1.055" exponent=".416666666" offset="-0.055"/>
   </feComponentTransfer>
   <feComponentTransfer>
    <feFuncR type="linear" slope="-1" intercept="1"/>
    <feFuncG type="linear" slope="-1" intercept="1"/>
    <feFuncB type="linear" slope="-1" intercept="1"/>
    <feFuncA type="linear" slope="1" intercept="0"/>
   </feComponentTransfer>
   <feComponentTransfer>
    <feFuncR type="gamma" amplitude="1" exponent="2.4" offset="0"/>
    <feFuncG type="gamma" amplitude="1" exponent="2.4" offset="0"/>
    <feFuncB type="gamma" amplitude="1" exponent="2.4" offset="0"/>
   </feComponentTransfer>
  </filter>
 </defs>
 <g id="Document" fill="none" stroke="black" font-family="Times New Roman" font-size="16" transform="scale(1 -1)">
  <g id="Spread" transform="translate(0 -24)">
   <g id="MouseOff">
    <path d="M -0.002,23.998 L -0.002,0.001 L 24.001,0.001 L 24.001,23.998 L -0.002,23.998 Z" fill="#ffffff" stroke="none" stroke-width="0.705" stroke-linejoin="miter" marker-start="none" marker-end="none" stroke-miterlimit="79.8403193612775"/>
    <a xlink:href="popup: &quot;search_anim&quot;, &quot;search_panel (lock)&quot;, close &quot;dir_anim&quot;, &quot;directions_panel (lock)&quot;, &quot;joystick (lock)&quot;" target="">
     <path d="M 0,0.75 L 0,23.999 L 23.247,23.999 L 23.247,0.75 L 0,0.75 Z" stroke-linejoin="miter" stroke="none" stroke-width="0.705" fill="#ffffff" marker-start="none" marker-end="none" stroke-miterlimit="79.8403193612775"/>
    </a>
    <a xlink:href="popup: &quot;search_anim&quot;, &quot;search_panel (lock)&quot;, close &quot;dir_anim&quot;, &quot;directions_panel (lock)&quot;, &quot;joystick (lock)&quot;" target="">
     <path d="M -0.002,12 L 12,2.333 L 24.002,11.999 L 12,21.666 L -0.002,12 Z" stroke-linejoin="miter" stroke-opacity="0.552941" fill="#99bd1b" stroke="none" stroke-width="0.652" marker-start="none" marker-end="none" stroke-miterlimit="79.8403193612775" fill-opacity="0.552941"/>
    </a>
    <a xlink:href="popup: &quot;search_anim&quot;, &quot;search_panel (lock)&quot;, close &quot;dir_anim&quot;, &quot;directions_panel (lock)&quot;, &quot;joystick (lock)&quot;" target="">
     <g id="Group" stroke-linejoin="miter" stroke="#333333" stroke-width="0.75" fill="#ffffff" stroke-miterlimit="79.8403193612775">
      <path d="M 11.386,17.488 L 13.878,14.118 L 17.231,12.005 L 14.981,15.005 L 11.386,17.488 Z" marker-start="none" marker-end="none"/>
      <path d="M 8.255,10.772 L 8.255,9.046 L 12.353,6.037 L 16.504,9.114 L 16.504,12.334 L 14.688,14.72 L 8.255,10.772 Z" marker-start="none" marker-end="none"/>
      <path d="M 9.828,18.595 L 6.99,11.5 L 11.983,7.954 L 14.822,15.047 L 9.828,18.595 Z" marker-start="none" marker-end="none"/>
     </g>
    </a>
    <a xlink:href="popup: &quot;search_anim&quot;, &quot;search_panel (lock)&quot;, close &quot;dir_anim&quot;, &quot;directions_panel (lock)&quot;, &quot;joystick (lock)&quot;" target="">
     <g id="Group_1" stroke-linejoin="miter" stroke="#db4c39" stroke-width="1.5" stroke-miterlimit="79.8403193612775">
      <path d="M 11.996,21.33 C 17.127,21.332 21.296,17.153 21.298,12.004 C 21.299,6.855 17.135,2.671 12.004,2.67 C 6.873,2.668 2.704,6.847 2.702,11.996 C 2.701,17.145 6.865,21.329 11.996,21.33 Z" marker-start="none" marker-end="none"/>
      <g id="Group_2">
       <path d="M 11.959,2.701 L 11.959,5.105" fill="none"/>
       <path d="M 11.96,19.189 L 11.96,21.337" fill="none"/>
       <path d="M 21.244,12.02 L 19.275,12.02" fill="none"/>
       <path d="M 4.941,12.016 L 2.676,12.02" fill="none"/>
      </g>
     </g>
    </a>
   </g>
  </g>
 </g>
</svg>
